<svg xmlns="http://www.w3.org/2000/svg" xmlns:xlink="http://www.w3.org/1999/xlink" width="1000" zoomAndPan="magnify" viewBox="0 0 750 749.999995" height="1000" preserveAspectRatio="xMidYMid meet" version="1.0"><defs><g/><clipPath id="b18cdab192"><path d="M 255.664062 163.152344 L 494 163.152344 L 494 464.652344 L 255.664062 464.652344 Z M 255.664062 163.152344 " clip-rule="nonzero"/></clipPath></defs><g clip-path="url(#b18cdab192)"><path fill="#bb9457" d="M 338.117188 382.1875 C 342.101562 385.089844 344.699219 389.683594 344.699219 394.820312 C 344.699219 403.34375 337.816406 410.230469 329.488281 410.230469 C 320.972656 410.230469 314.09375 403.34375 314.09375 394.820312 C 314.09375 389.621094 316.6875 385.03125 320.792969 382.1875 L 320.792969 295.21875 C 320.792969 290.503906 324.597656 286.515625 329.488281 286.515625 C 334.195312 286.515625 338.179688 290.503906 338.179688 295.21875 L 338.179688 382.1875 Z M 428.007812 381.585938 C 432.59375 384.304688 435.613281 389.199219 435.613281 394.878906 C 435.613281 403.402344 428.730469 410.292969 420.402344 410.292969 C 411.890625 410.292969 405.007812 403.402344 405.007812 394.878906 C 405.007812 390.167969 407.121094 385.875 410.621094 382.972656 L 410.621094 295.21875 C 410.621094 290.503906 414.425781 286.515625 419.3125 286.515625 C 424.023438 286.515625 428.007812 290.503906 428.007812 295.21875 Z M 374.824219 162.980469 C 407.722656 162.980469 437.605469 176.277344 459.097656 197.914062 C 480.589844 219.429688 493.988281 249.347656 493.988281 282.285156 C 493.988281 315.101562 480.589844 344.960938 459.097656 366.476562 C 453.90625 371.671875 448.292969 376.386719 442.195312 380.679688 L 442.195312 362.847656 C 444.488281 360.855469 446.78125 358.738281 449.074219 356.441406 C 467.972656 337.523438 479.863281 311.296875 479.863281 282.285156 C 479.863281 253.152344 467.972656 226.921875 449.074219 208.007812 C 430.058594 188.96875 403.800781 177.183594 374.882812 177.183594 C 345.96875 177.183594 319.707031 188.910156 300.8125 208.007812 C 281.796875 226.921875 270.023438 253.152344 270.023438 282.285156 C 270.023438 311.296875 281.734375 337.523438 300.8125 356.441406 C 302.621094 358.4375 304.613281 360.25 306.605469 361.941406 L 306.605469 379.953125 C 300.992188 375.964844 295.621094 371.550781 290.609375 366.535156 C 269.117188 344.960938 255.835938 315.042969 255.835938 282.285156 C 255.835938 249.347656 269.117188 219.429688 290.550781 197.914062 C 312.222656 176.277344 341.921875 162.980469 374.824219 162.980469 Z M 392.8125 412.226562 L 392.8125 297.394531 C 392.8125 287.300781 384.421875 278.960938 374.402344 278.960938 C 364.378906 278.960938 355.988281 287.363281 355.988281 297.394531 L 355.988281 412.285156 C 349.105469 417.605469 344.878906 426.007812 344.878906 435.496094 C 344.878906 451.996094 358.160156 465.230469 374.460938 465.230469 C 390.761719 465.230469 404.042969 451.933594 404.042969 435.496094 C 403.921875 425.945312 399.511719 417.605469 392.8125 412.226562 Z M 345.90625 275.695312 C 352.910156 267.78125 363.113281 262.703125 374.402344 262.703125 C 385.6875 262.703125 395.890625 267.71875 402.714844 275.695312 C 407.421875 272.3125 413.097656 270.378906 419.3125 270.378906 C 419.496094 270.378906 419.796875 270.378906 419.917969 270.378906 L 374.402344 194.226562 L 328.703125 270.316406 C 329.003906 270.316406 329.183594 270.316406 329.488281 270.316406 C 335.523438 270.378906 341.320312 272.375 345.90625 275.695312 Z M 345.90625 275.695312 " fill-opacity="1" fill-rule="nonzero"/></g><g fill="#302616" fill-opacity="1"><g transform="translate(152.240408, 534.018402)"><g><path d="M 49.34375 -33.703125 L 40.5625 0 L 30.625 0 L 25.25 -22.171875 L 19.6875 0 L 9.75 0 L 1.203125 -33.703125 L 9.984375 -33.703125 L 14.828125 -9.171875 L 20.828125 -33.703125 L 29.859375 -33.703125 L 35.609375 -9.171875 L 40.515625 -33.703125 Z M 49.34375 -33.703125 "/></g></g></g><g fill="#302616" fill-opacity="1"><g transform="translate(218.048499, 534.018402)"><g><path d="M 20.15625 0 L 13.15625 -12.71875 L 11.1875 -12.71875 L 11.1875 0 L 2.96875 0 L 2.96875 -33.703125 L 16.75 -33.703125 C 19.40625 -33.703125 21.671875 -33.234375 23.546875 -32.296875 C 25.421875 -31.367188 26.820312 -30.097656 27.75 -28.484375 C 28.675781 -26.867188 29.140625 -25.070312 29.140625 -23.09375 C 29.140625 -20.851562 28.503906 -18.851562 27.234375 -17.09375 C 25.972656 -15.332031 24.109375 -14.082031 21.640625 -13.34375 L 29.421875 0 Z M 11.1875 -18.53125 L 16.265625 -18.53125 C 17.773438 -18.53125 18.90625 -18.894531 19.65625 -19.625 C 20.40625 -20.363281 20.78125 -21.40625 20.78125 -22.75 C 20.78125 -24.03125 20.40625 -25.035156 19.65625 -25.765625 C 18.90625 -26.503906 17.773438 -26.875 16.265625 -26.875 L 11.1875 -26.875 Z M 11.1875 -18.53125 "/></g></g></g><g fill="#302616" fill-opacity="1"><g transform="translate(264.656563, 534.018402)"><g><path d="M 11.1875 -33.703125 L 11.1875 0 L 2.96875 0 L 2.96875 -33.703125 Z M 11.1875 -33.703125 "/></g></g></g><g fill="#302616" fill-opacity="1"><g transform="translate(294.128589, 534.018402)"><g><path d="M 27.21875 -33.703125 L 27.21875 -27.125 L 18.28125 -27.125 L 18.28125 0 L 10.078125 0 L 10.078125 -27.125 L 1.15625 -27.125 L 1.15625 -33.703125 Z M 27.21875 -33.703125 "/></g></g></g><g fill="#302616" fill-opacity="1"><g transform="translate(337.808636, 534.018402)"><g><path d="M 11.1875 -27.125 L 11.1875 -20.296875 L 22.171875 -20.296875 L 22.171875 -13.96875 L 11.1875 -13.96875 L 11.1875 -6.578125 L 23.609375 -6.578125 L 23.609375 0 L 2.96875 0 L 2.96875 -33.703125 L 23.609375 -33.703125 L 23.609375 -27.125 Z M 11.1875 -27.125 "/></g></g></g><g fill="#302616" fill-opacity="1"><g transform="translate(379.088709, 534.018402)"><g><path d="M 15.171875 0.34375 C 12.703125 0.34375 10.488281 -0.0546875 8.53125 -0.859375 C 6.582031 -1.660156 5.023438 -2.84375 3.859375 -4.40625 C 2.691406 -5.976562 2.078125 -7.867188 2.015625 -10.078125 L 10.75 -10.078125 C 10.875 -8.828125 11.304688 -7.875 12.046875 -7.21875 C 12.785156 -6.5625 13.742188 -6.234375 14.921875 -6.234375 C 16.140625 -6.234375 17.097656 -6.515625 17.796875 -7.078125 C 18.503906 -7.640625 18.859375 -8.414062 18.859375 -9.40625 C 18.859375 -10.238281 18.578125 -10.925781 18.015625 -11.46875 C 17.460938 -12.007812 16.773438 -12.457031 15.953125 -12.8125 C 15.140625 -13.164062 13.984375 -13.566406 12.484375 -14.015625 C 10.304688 -14.691406 8.53125 -15.363281 7.15625 -16.03125 C 5.78125 -16.707031 4.59375 -17.695312 3.59375 -19 C 2.601562 -20.3125 2.109375 -22.023438 2.109375 -24.140625 C 2.109375 -27.273438 3.242188 -29.726562 5.515625 -31.5 C 7.785156 -33.28125 10.75 -34.171875 14.40625 -34.171875 C 18.113281 -34.171875 21.101562 -33.28125 23.375 -31.5 C 25.644531 -29.726562 26.863281 -27.257812 27.03125 -24.09375 L 18.140625 -24.09375 C 18.078125 -25.1875 17.675781 -26.039062 16.9375 -26.65625 C 16.207031 -27.28125 15.265625 -27.59375 14.109375 -27.59375 C 13.117188 -27.59375 12.316406 -27.328125 11.703125 -26.796875 C 11.097656 -26.273438 10.796875 -25.519531 10.796875 -24.53125 C 10.796875 -23.4375 11.304688 -22.585938 12.328125 -21.984375 C 13.359375 -21.378906 14.960938 -20.722656 17.140625 -20.015625 C 19.316406 -19.273438 21.082031 -18.566406 22.4375 -17.890625 C 23.800781 -17.222656 24.976562 -16.25 25.96875 -14.96875 C 26.957031 -13.695312 27.453125 -12.050781 27.453125 -10.03125 C 27.453125 -8.113281 26.960938 -6.367188 25.984375 -4.796875 C 25.015625 -3.234375 23.597656 -1.984375 21.734375 -1.046875 C 19.878906 -0.117188 17.691406 0.34375 15.171875 0.34375 Z M 15.171875 0.34375 "/></g></g></g><g fill="#302616" fill-opacity="1"><g transform="translate(423.920753, 534.018402)"><g><path d="M 28.65625 -22.84375 C 28.65625 -20.894531 28.207031 -19.113281 27.3125 -17.5 C 26.414062 -15.882812 25.039062 -14.578125 23.1875 -13.578125 C 21.332031 -12.585938 19.023438 -12.09375 16.265625 -12.09375 L 11.1875 -12.09375 L 11.1875 0 L 2.96875 0 L 2.96875 -33.703125 L 16.265625 -33.703125 C 18.953125 -33.703125 21.222656 -33.234375 23.078125 -32.296875 C 24.941406 -31.367188 26.335938 -30.085938 27.265625 -28.453125 C 28.191406 -26.828125 28.65625 -24.957031 28.65625 -22.84375 Z M 15.640625 -18.625 C 17.210938 -18.625 18.378906 -18.988281 19.140625 -19.71875 C 19.910156 -20.457031 20.296875 -21.5 20.296875 -22.84375 C 20.296875 -24.1875 19.910156 -25.226562 19.140625 -25.96875 C 18.378906 -26.707031 17.210938 -27.078125 15.640625 -27.078125 L 11.1875 -27.078125 L 11.1875 -18.625 Z M 15.640625 -18.625 "/></g></g></g><g fill="#302616" fill-opacity="1"><g transform="translate(469.184835, 534.018402)"><g><path d="M 23.953125 -5.953125 L 11.375 -5.953125 L 9.359375 0 L 0.765625 0 L 12.953125 -33.703125 L 22.46875 -33.703125 L 34.65625 0 L 25.96875 0 Z M 21.84375 -12.28125 L 17.65625 -24.625 L 13.53125 -12.28125 Z M 21.84375 -12.28125 "/></g></g></g><g fill="#302616" fill-opacity="1"><g transform="translate(519.872912, 534.018402)"><g><path d="M 1.578125 -16.890625 C 1.578125 -20.222656 2.296875 -23.191406 3.734375 -25.796875 C 5.179688 -28.410156 7.191406 -30.441406 9.765625 -31.890625 C 12.335938 -33.347656 15.257812 -34.078125 18.53125 -34.078125 C 22.53125 -34.078125 25.953125 -33.019531 28.796875 -30.90625 C 31.648438 -28.800781 33.554688 -25.921875 34.515625 -22.265625 L 25.484375 -22.265625 C 24.816406 -23.679688 23.863281 -24.753906 22.625 -25.484375 C 21.394531 -26.222656 20 -26.59375 18.4375 -26.59375 C 15.90625 -26.59375 13.851562 -25.710938 12.28125 -23.953125 C 10.71875 -22.191406 9.9375 -19.835938 9.9375 -16.890625 C 9.9375 -13.953125 10.71875 -11.601562 12.28125 -9.84375 C 13.851562 -8.082031 15.90625 -7.203125 18.4375 -7.203125 C 20 -7.203125 21.394531 -7.566406 22.625 -8.296875 C 23.863281 -9.035156 24.816406 -10.109375 25.484375 -11.515625 L 34.515625 -11.515625 C 33.554688 -7.867188 31.648438 -5 28.796875 -2.90625 C 25.953125 -0.8125 22.53125 0.234375 18.53125 0.234375 C 15.257812 0.234375 12.335938 -0.488281 9.765625 -1.9375 C 7.191406 -3.394531 5.179688 -5.421875 3.734375 -8.015625 C 2.296875 -10.609375 1.578125 -13.566406 1.578125 -16.890625 Z M 1.578125 -16.890625 "/></g></g></g><g fill="#302616" fill-opacity="1"><g transform="translate(571.760971, 534.018402)"><g><path d="M 11.1875 -27.125 L 11.1875 -20.296875 L 22.171875 -20.296875 L 22.171875 -13.96875 L 11.1875 -13.96875 L 11.1875 -6.578125 L 23.609375 -6.578125 L 23.609375 0 L 2.96875 0 L 2.96875 -33.703125 L 23.609375 -33.703125 L 23.609375 -27.125 Z M 11.1875 -27.125 "/></g></g></g></svg>